<svg width="32" height="32" viewBox="0 0 32 32" fill="none" xmlns="http://www.w3.org/2000/svg">
<path d="M5.0735 5.33333H12.6838V13.3333H5.0735V5.33333ZM25.3675 5.33333V13.3333H17.7573V5.33333H25.3675ZM17.7573 20H20.294V17.3333H17.7573V14.6667H20.294V17.3333H22.8308V14.6667H25.3675V17.3333H22.8308V20H25.3675V24H22.8308V26.6667H20.294V24H16.4889V26.6667H13.9521V21.3333H17.7573V20ZM20.294 20V24H22.8308V20H20.294ZM5.0735 26.6667V18.6667H12.6838V26.6667H5.0735ZM7.61026 8V10.6667H10.147V8H7.61026ZM20.294 8V10.6667H22.8308V8H20.294ZM7.61026 21.3333V24H10.147V21.3333H7.61026ZM5.0735 14.6667H7.61026V17.3333H5.0735V14.6667ZM11.4154 14.6667H16.4889V20H13.9521V17.3333H11.4154V14.6667ZM13.9521 8H16.4889V13.3333H13.9521V8ZM2.53675 2.66667V8H0V2.66667C0 1.95942 0.267264 1.28115 0.742998 0.781049C1.21873 0.280952 1.86396 0 2.53675 0L7.61026 0V2.66667H2.53675ZM27.9043 0C28.5771 0 29.2223 0.280952 29.698 0.781049C30.1738 1.28115 30.441 1.95942 30.441 2.66667V8H27.9043V2.66667H22.8308V0H27.9043ZM2.53675 24V29.3333H7.61026V32H2.53675C1.86396 32 1.21873 31.719 0.742998 31.219C0.267264 30.7189 0 30.0406 0 29.3333V24H2.53675ZM27.9043 29.3333V24H30.441V29.3333C30.441 30.0406 30.1738 30.7189 29.698 31.219C29.2223 31.719 28.5771 32 27.9043 32H22.8308V29.3333H27.9043Z" fill="#00314C"/>
</svg>
