<svg width="24" height="24" viewBox="0 0 24 24" fill="none" xmlns="http://www.w3.org/2000/svg">
<g clip-path="url(#clip0_573_1720)">
<path d="M14.3815 12.332C12.0059 12.332 10.0732 14.2756 10.0732 16.6647C10.0732 19.0538 12.0059 20.9973 14.3815 20.9973C16.7571 20.9973 18.6898 19.0538 18.6898 16.6647C18.6898 14.2756 16.7569 12.332 14.3815 12.332ZM14.3815 19.4095C12.8766 19.4095 11.6522 18.1781 11.6522 16.6647C11.6522 16.1962 11.7697 15.7549 11.9763 15.3688L13.8232 17.2261C13.9713 17.375 14.1721 17.4587 14.3815 17.4587H16.994C16.6544 18.5861 15.6119 19.4095 14.3815 19.4095ZM14.7085 15.8707L13.0928 14.2459C13.4769 14.0381 13.9157 13.9199 14.3814 13.9199C15.612 13.9199 16.6545 14.7432 16.994 15.8707H14.7085Z" fill="#00314C"/>
<path d="M19.0302 2.3591H16.7588C16.4812 1.66836 15.8078 1.17947 15.0227 1.17947H13.7966C13.4921 0.485574 12.8014 0 12 0C11.1986 0 10.5079 0.485574 10.2034 1.17955H8.97731C8.19219 1.17955 7.51876 1.66844 7.24123 2.35918H4.96983C3.88371 2.35918 3 3.24791 3 4.34019V22.0191C3 23.1114 3.88371 24 4.96983 24H19.0302C20.1163 24 21 23.1114 21 22.0191V4.34011C21 3.24783 20.1163 2.3591 19.0302 2.3591ZM8.68411 3.06221C8.68419 2.89971 8.81573 2.76743 8.97731 2.76743H10.827C11.263 2.76743 11.6165 2.41195 11.6165 1.97349C11.6165 1.76088 11.7885 1.58787 11.9999 1.58787C12.2113 1.58787 12.3834 1.76088 12.3834 1.97349C12.3834 2.41195 12.7368 2.76743 13.1728 2.76743H15.0225C15.1841 2.76743 15.3156 2.89971 15.3156 3.06221V4.42358C15.3156 4.58609 15.1841 4.71837 15.0225 4.71837H8.97723C8.81565 4.71837 8.68411 4.58609 8.68411 4.42358V3.06221ZM19.0302 22.412H4.96983C4.75425 22.412 4.57892 22.2357 4.57892 22.019V4.34011C4.57892 4.1233 4.75425 3.94698 4.96983 3.94698H7.10527V4.4235C7.10527 5.46164 7.94511 6.30616 8.97731 6.30616H15.0226C16.0549 6.30616 16.8946 5.46156 16.8946 4.4235V3.94698H19.0301C19.2457 3.94698 19.421 4.1233 19.421 4.34011V22.019H19.4211C19.421 22.2357 19.2457 22.412 19.0302 22.412Z" fill="#00314C"/>
<path d="M6.13516 9.20149H11.9998C12.4358 9.20149 12.7893 8.84602 12.7893 8.40755C12.7893 7.96909 12.4358 7.61362 11.9998 7.61362H6.13516C5.69917 7.61362 5.3457 7.96909 5.3457 8.40755C5.34562 8.84602 5.69909 9.20149 6.13516 9.20149Z" fill="#00314C"/>
<path d="M6.13516 11.5607H9.65402C10.09 11.5607 10.4435 11.2052 10.4435 10.7667C10.4435 10.3283 10.09 9.97281 9.65402 9.97281H6.13516C5.69917 9.97281 5.3457 10.3283 5.3457 10.7667C5.34562 11.2052 5.69909 11.5607 6.13516 11.5607Z" fill="#00314C"/>
<path d="M10.4434 13.1259C10.4434 12.6875 10.0899 12.332 9.65394 12.332H6.13516C5.69917 12.332 5.3457 12.6875 5.3457 13.1259C5.3457 13.5644 5.69917 13.9199 6.13516 13.9199H9.65402C10.09 13.9199 10.4434 13.5644 10.4434 13.1259Z" fill="#00314C"/>
</g>
<defs>
<clipPath id="clip0_573_1720">
<rect width="24" height="24" fill="white"/>
</clipPath>
</defs>
</svg>
